<?xml version="1.0" encoding="utf-8"?>
<!-- Generator: Adobe Illustrator 24.3.0, SVG Export Plug-In . SVG Version: 6.00 Build 0)  -->
<svg version="1.1" id="Layer_1" xmlns="http://www.w3.org/2000/svg" xmlns:xlink="http://www.w3.org/1999/xlink" x="0px" y="0px"
	 viewBox="0 0 25.5 25.5" style="enable-background:new 0 0 25.5 25.5;" xml:space="preserve">
<style type="text/css">
	.st0{fill:#FFFFFF;}
</style>
<path id="Icon_metro-cross" class="st0" d="M21.6,18.2L21.6,18.2l-5.5-5.5l5.5-5.5l0,0c0.2-0.2,0.2-0.6,0-0.8c0,0,0,0,0,0L19,3.9
	c-0.2-0.2-0.6-0.2-0.8,0c0,0,0,0,0,0l0,0l-5.5,5.5L7.3,3.9l0,0C7,3.7,6.7,3.7,6.5,3.9c0,0,0,0,0,0L3.9,6.5C3.7,6.7,3.7,7,3.9,7.3
	c0,0,0,0,0,0l0,0l5.5,5.5l-5.5,5.5l0,0c-0.2,0.2-0.2,0.6,0,0.8c0,0,0,0,0,0l2.6,2.6c0.2,0.2,0.6,0.2,0.8,0c0,0,0,0,0,0l0,0l5.5-5.5
	l5.5,5.5l0,0c0.2,0.2,0.6,0.2,0.8,0c0,0,0,0,0,0l2.6-2.6C21.8,18.8,21.8,18.4,21.6,18.2C21.6,18.2,21.6,18.2,21.6,18.2L21.6,18.2z"
	/>
</svg>
