<?xml version="1.0" encoding="utf-8"?>
<!-- Generator: Adobe Illustrator 24.3.0, SVG Export Plug-In . SVG Version: 6.00 Build 0)  -->
<svg version="1.1" id="Layer_1" xmlns="http://www.w3.org/2000/svg" xmlns:xlink="http://www.w3.org/1999/xlink" x="0px" y="0px"
	 viewBox="0 0 13.5 20.2" style="enable-background:new 0 0 13.5 20.2;" xml:space="preserve">
<path id="Icon_ionic-ios-arrow-round-up" d="M0.3,12.9c0.4-0.4,0.9-0.4,1.3,0l4.3,4.3l0-16.3C5.8,0.4,6.3,0,6.8,0
	c0.5,0,0.9,0.4,0.9,0.9l0,16.3l4.3-4.3c0.4-0.3,0.9-0.3,1.3,0c0.4,0.4,0.3,0.9,0,1.3c0,0,0,0,0,0L7.4,20l0,0
	c-0.1,0.1-0.2,0.1-0.3,0.2c-0.1,0-0.2,0.1-0.4,0.1c-0.2,0-0.5-0.1-0.6-0.3l-5.8-5.8C-0.1,13.8-0.1,13.3,0.3,12.9
	C0.3,12.9,0.3,12.9,0.3,12.9z"/>
</svg>
