<svg xmlns="http://www.w3.org/2000/svg" width="25" height="26.667" viewBox="0 0 25 26.667">
  <path id="Icon_metro-calendar" data-name="Icon metro-calendar" d="M10.9,11.928h3.333v3.333H10.9Zm5,0h3.333v3.333H15.9Zm5,0h3.333v3.333H20.9Zm-15,10H9.237v3.333H5.9Zm5,0h3.333v3.333H10.9Zm5,0h3.333v3.333H15.9Zm-5-5h3.333v3.333H10.9Zm5,0h3.333v3.333H15.9Zm5,0h3.333v3.333H20.9Zm-15,0H9.237v3.333H5.9Zm18.333-15V3.595H20.9V1.928H9.237V3.595H5.9V1.928H2.571V28.595h25V1.928H24.237Zm1.667,25H4.237V8.595H25.9Z" transform="translate(-2.571 -1.928)" fill="#fff"/>
</svg>
